<svg width="1280" height="720" viewBox="0 0 1280 720" xmlns="http://www.w3.org/2000/svg">
  <defs>
    <linearGradient id="bgGrad" x1="0%" y1="0%" x2="100%" y2="100%">
      <stop offset="0%" stop-color="#FFFFFF"/>
      <stop offset="55%" stop-color="#F6FAFD"/>
      <stop offset="100%" stop-color="#E6EFF8"/>
    </linearGradient>
    <pattern id="grid" width="46" height="46" patternUnits="userSpaceOnUse">
      <path d="M46 0 L0 0 0 46" fill="none" stroke="#13294B" stroke-width="1"/>
    </pattern>
  </defs>
  <rect width="1280" height="720" fill="url(#bgGrad)"/>
  <g opacity="0.04"><rect width="1280" height="720" fill="url(#grid)"/></g>

  <!-- 시안 노선: 우상단 → 우하단 -->
  <path d="M 1330 70 Q 1110 140 1055 320 Q 1010 485 1130 600" fill="none" stroke="#0E9FBF" stroke-width="4" stroke-linecap="round" opacity="0.5"/>
  <circle cx="1055" cy="320" r="8" fill="#FFFFFF" stroke="#0E9FBF" stroke-width="4"/>
  <circle cx="1130" cy="600" r="8" fill="#FFFFFF" stroke="#0E9FBF" stroke-width="4"/>

  <!-- 네이비 노선: 하단 가로 -->
  <path d="M -60 645 Q 320 585 660 652 Q 1000 712 1340 628" fill="none" stroke="#13294B" stroke-width="4" stroke-linecap="round" opacity="0.34"/>
  <circle cx="660" cy="652" r="8" fill="#FFFFFF" stroke="#13294B" stroke-width="4"/>
  <circle cx="320" cy="592" r="8" fill="#FFFFFF" stroke="#13294B" stroke-width="4"/>

  <!-- 레드 노선: 좌하단 -->
  <path d="M 70 745 Q 110 585 255 522 Q 360 478 430 545" fill="none" stroke="#E63946" stroke-width="4" stroke-linecap="round" opacity="0.4"/>
  <circle cx="255" cy="522" r="7" fill="#FFFFFF" stroke="#E63946" stroke-width="4"/>

  <!-- 골드 노선: 우측 짧게 -->
  <path d="M 1290 380 Q 1205 425 1190 510" fill="none" stroke="#E0871E" stroke-width="4" stroke-linecap="round" opacity="0.38"/>
  <circle cx="1190" cy="510" r="6.5" fill="#E0871E"/>

  <!-- 데이터 포인트 (하단·우측 위주) -->
  <circle cx="1200" cy="250" r="3.5" fill="#0E9FBF" opacity="0.3"/>
  <circle cx="150" cy="660" r="3" fill="#13294B" opacity="0.25"/>
  <circle cx="980" cy="690" r="3.5" fill="#0E9FBF" opacity="0.26"/>
  <circle cx="540" cy="702" r="3" fill="#E63946" opacity="0.24"/>
  <circle cx="1235" cy="590" r="3" fill="#13294B" opacity="0.2"/>
</svg>
